<svg xmlns="http://www.w3.org/2000/svg" xml:space="preserve" width="133px" height="133px" version="1.1" style="shape-rendering:geometricPrecision; text-rendering:geometricPrecision; image-rendering:optimizeQuality; fill-rule:evenodd; clip-rule:evenodd" viewBox="0 0 133 133" xmlns:xlink="http://www.w3.org/1999/xlink">
 <g>
  <g>
   <path id="logo" style="fill:#74B01B;fill-rule:nonzero" d="M61.91 127.85c-8.83,-1.1 -15.51,-5.22 -17.62,-10.88 -0.98,-2.61 -1.38,-5.73 -0.73,-5.73 0.17,0 1.36,0.93 2.65,2.07 2.84,2.51 5.01,3.64 8.57,4.48 7.59,1.79 16.26,-2.51 20.02,-9.93 1.36,-2.7 2.19,-4.99 2.19,-8.3 0,-3.45 -0.83,-5.92 -2.15,-8.42 -2.8,-5.33 -9.65,-10.74 -16.19,-12.8 -2.87,-0.9 -4.7,-1.11 -9.59,-1.09 -10.02,0.04 -17.53,2.79 -23.24,8.49 -5.34,5.35 -7.76,11.81 -7.76,20.75 0,5.02 -0.48,6 -1.41,2.86 -1.95,-6.62 -2.57,-22.56 -1.19,-30.36 2,-11.24 4.96,-20.41 9.86,-30.5 9.11,-18.77 22.77,-33.52 37.82,-40.84 7.39,-3.6 12.68,-4.97 19.18,-4.96 8.93,0 15.5,2.58 21.88,8.57 14.7,13.79 17.87,41.11 8.08,69.52 -3.97,11.52 -12.3,26.19 -19.05,33.55 -2.95,3.21 -9.73,8.27 -13.94,10.4 -4.97,2.52 -12.03,3.79 -17.38,3.12l0 0z" />
  </g>
 </g>
</svg>
