<svg xmlns="http://www.w3.org/2000/svg" xml:space="preserve" width="138px" height="26px" version="1.1" style="shape-rendering:geometricPrecision; text-rendering:geometricPrecision; image-rendering:optimizeQuality; fill-rule:evenodd; clip-rule:evenodd" viewBox="0 0 138 26" xmlns:xlink="http://www.w3.org/1999/xlink">
 <defs>
  <style type="text/css">
   <![CDATA[
    .str0 {stroke:black;stroke-width:1.04;stroke-miterlimit:22.9256}
    .fil0 {fill:black;fill-rule:nonzero}
   ]]>
  </style>
 </defs>
 <g id="Слой_x0020_1">
  <g id="_2429540946992">
   <path class="fil0 str0" d="M25.33 23.97l5.81 -20.99c0.08,-0.26 0.08,-0.44 0,-0.54 -0.09,-0.11 -0.25,-0.17 -0.51,-0.17l-2.77 0 0.22 -0.75 5.52 0 -4.03 14.57 2.01 0c0.98,0 1.89,-1.36 2.74,-4.07 0.28,-0.91 0.65,-1.54 1.14,-1.89 0.48,-0.36 0.99,-0.54 1.54,-0.54 0.28,0 0.55,0.07 0.82,0.22 0.27,0.15 0.46,0.31 0.59,0.47 0.32,0.47 0.49,0.99 0.49,1.58 0,0.59 -0.15,1.06 -0.45,1.42 -0.29,0.36 -0.67,0.54 -1.13,0.54 -0.3,0 -0.56,-0.1 -0.79,-0.29 -0.23,-0.19 -0.35,-0.45 -0.35,-0.79 0,-0.29 0.11,-0.57 0.32,-0.85 0.17,-0.23 0.25,-0.41 0.25,-0.53 0,-0.34 -0.2,-0.51 -0.6,-0.51 -0.29,0 -0.52,0.11 -0.69,0.32 -0.17,0.21 -0.32,0.51 -0.44,0.91 -0.28,0.91 -0.64,1.8 -1.09,2.68 -0.44,0.89 -0.88,1.4 -1.31,1.55l-0.02 0.16c0.58,0.04 1.09,0.27 1.53,0.7 0.45,0.43 0.67,0.99 0.67,1.68 0,0.51 -0.11,1.14 -0.32,1.9 -0.21,0.77 -0.31,1.27 -0.31,1.52 0,0.24 0.05,0.45 0.15,0.64 0.11,0.21 0.28,0.3 0.51,0.3 0.23,0 0.49,-0.11 0.78,-0.34 0.13,-0.11 0.25,-0.22 0.39,-0.36 0.14,-0.14 0.26,-0.29 0.37,-0.47 0.12,-0.18 0.22,-0.35 0.33,-0.5 0.1,-0.16 0.21,-0.35 0.32,-0.59 0.12,-0.23 0.21,-0.41 0.28,-0.56 0.08,-0.14 0.17,-0.35 0.27,-0.6 0.1,-0.25 0.18,-0.42 0.22,-0.53 0.04,-0.1 0.11,-0.29 0.2,-0.57 0.09,-0.27 0.15,-0.42 0.17,-0.46l0.62 0.18c-1.36,3.96 -2.85,5.94 -4.49,5.94 -0.63,0 -1.17,-0.2 -1.61,-0.6 -0.44,-0.41 -0.66,-1.05 -0.66,-1.95 0,-0.54 0.11,-1.19 0.32,-1.94 0.21,-0.76 0.31,-1.29 0.31,-1.6 0,-0.49 -0.09,-0.84 -0.27,-1.07 -0.19,-0.23 -0.56,-0.35 -1.13,-0.35l-1.82 0 -2.04 7.13 -2.06 0zm20.07 -3.28c0,0.86 0.18,1.56 0.54,2.1 0.36,0.54 0.88,0.8 1.56,0.8 0.46,0 0.88,-0.1 1.27,-0.31 0.37,-0.21 0.72,-0.52 1.03,-0.92 0.3,-0.4 0.55,-0.78 0.75,-1.15 0.2,-0.37 0.42,-0.81 0.65,-1.34 0.45,-1.01 0.8,-2.12 1.08,-3.33 0.28,-1.2 0.41,-2.3 0.41,-3.29 0,-0.86 -0.17,-1.56 -0.5,-2.1 -0.34,-0.54 -0.85,-0.8 -1.53,-0.8 -0.46,0 -0.89,0.1 -1.28,0.31 -0.39,0.21 -0.74,0.51 -1.05,0.9 -0.3,0.39 -0.56,0.78 -0.77,1.17 -0.21,0.39 -0.44,0.83 -0.67,1.34 -0.44,1.01 -0.8,2.12 -1.08,3.33 -0.27,1.21 -0.41,2.3 -0.41,3.29zm-2.14 -1.89c0,-1.09 0.21,-2.2 0.62,-3.31 0.42,-1.12 0.96,-2.1 1.62,-2.97 0.66,-0.86 1.47,-1.56 2.41,-2.11 0.94,-0.55 1.91,-0.82 2.88,-0.82 0.49,0 0.98,0.12 1.45,0.35 0.49,0.23 0.92,0.56 1.31,1.01 0.39,0.44 0.7,1.02 0.93,1.75 0.24,0.72 0.36,1.54 0.36,2.44 0,1.09 -0.2,2.2 -0.61,3.31 -0.4,1.12 -0.94,2.11 -1.6,2.97 -0.66,0.86 -1.46,1.56 -2.4,2.11 -0.93,0.55 -1.89,0.82 -2.86,0.82 -1.08,0 -2.04,-0.48 -2.87,-1.45 -0.82,-0.97 -1.24,-2.33 -1.24,-4.1zm15.28 5.17l5.8 -20.99c0.08,-0.26 0.08,-0.44 0,-0.54 -0.08,-0.11 -0.25,-0.17 -0.5,-0.17l-2.78 0 0.22 -0.75 5.52 0 -4.17 15.1 0.13 0.1c0.08,-0.12 0.26,-0.45 0.53,-0.99 0.28,-0.53 0.51,-0.96 0.7,-1.3 0.19,-0.33 0.45,-0.77 0.79,-1.31 0.34,-0.54 0.66,-0.99 0.98,-1.34 0.31,-0.37 0.66,-0.73 1.04,-1.1 0.38,-0.36 0.77,-0.64 1.17,-0.82 0.4,-0.18 0.81,-0.27 1.23,-0.27 0.63,0 1.13,0.26 1.5,0.78 0.37,0.52 0.55,1.29 0.55,2.29 0,0.46 -0.07,1 -0.21,1.65 -0.14,0.64 -0.28,1.15 -0.44,1.52l-2.01 4.7c-0.33,0.72 -0.49,1.33 -0.49,1.82 0,0.29 0.05,0.53 0.17,0.71 0.12,0.19 0.3,0.28 0.55,0.28 0.38,0 0.77,-0.18 1.17,-0.55 0.4,-0.36 0.77,-0.84 1.1,-1.43 0.34,-0.59 0.62,-1.14 0.84,-1.62 0.22,-0.49 0.42,-1 0.61,-1.52l0.63 0.19c-0.37,1.07 -0.78,2.03 -1.21,2.88 -0.43,0.84 -0.96,1.56 -1.58,2.16 -0.62,0.6 -1.25,0.9 -1.91,0.9 -0.56,0 -1.04,-0.26 -1.43,-0.77 -0.39,-0.51 -0.58,-1.27 -0.58,-2.3 0,-0.46 0.06,-1 0.19,-1.62 0.12,-0.62 0.27,-1.14 0.44,-1.55l2.02 -4.7c0.33,-0.72 0.5,-1.33 0.5,-1.82 0,-0.66 -0.23,-0.99 -0.69,-0.99 -1.29,0 -2.64,1.18 -4.03,3.54 -0.85,1.4 -1.6,2.8 -2.25,4.21 -0.66,1.41 -1.14,2.59 -1.43,3.53l-0.61 2.09 -2.06 0zm18.31 -3.89c0,-1.29 0.19,-2.54 0.56,-3.74 0.37,-1.2 0.8,-2.18 1.27,-2.92 0.73,-1.16 1.57,-2.09 2.54,-2.78 0.96,-0.7 1.94,-1.05 2.94,-1.05 0.65,0 1.24,0.23 1.77,0.68 0.52,0.46 0.9,1.15 1.13,2.11l0.14 0.06 0.69 -2.47 2.11 0 -2.71 9.98c-0.3,1.18 -0.45,2.03 -0.45,2.54 0,0.57 0.19,0.85 0.58,0.85 0.59,0 1.19,-0.47 1.81,-1.41 0.62,-0.94 1.17,-2.16 1.65,-3.66l0.63 0.19c-0.23,0.71 -0.5,1.39 -0.79,2.02 -0.3,0.64 -0.65,1.26 -1.05,1.88 -0.4,0.62 -0.84,1.1 -1.33,1.46 -0.49,0.35 -0.99,0.53 -1.5,0.53 -1.22,0 -1.83,-1.06 -1.83,-3.18l0.04 -0.84 -0.1 -0.06c-0.17,0.39 -0.4,0.8 -0.7,1.21 -0.29,0.42 -0.64,0.86 -1.04,1.31 -0.4,0.46 -0.87,0.83 -1.4,1.12 -0.53,0.29 -1.04,0.44 -1.55,0.44 -1.08,0 -1.92,-0.39 -2.51,-1.17 -0.6,-0.78 -0.9,-1.81 -0.9,-3.1zm2.14 1.26c0,0.6 0.12,1.12 0.35,1.57 0.23,0.46 0.6,0.68 1.11,0.68 0.76,0 1.51,-0.39 2.25,-1.16 0.74,-0.78 1.4,-1.84 1.99,-3.18 0.42,-0.97 0.79,-2.02 1.11,-3.17 0.32,-1.14 0.48,-2.08 0.48,-2.82 0,-0.93 -0.19,-1.65 -0.57,-2.15 -0.38,-0.51 -0.9,-0.76 -1.55,-0.76 -0.36,0 -0.71,0.11 -1.05,0.34 -0.33,0.24 -0.66,0.54 -0.95,0.91 -0.29,0.37 -0.55,0.74 -0.78,1.11 -0.22,0.37 -0.42,0.76 -0.61,1.18 -0.56,1.19 -0.99,2.44 -1.31,3.78 -0.31,1.33 -0.47,2.55 -0.47,3.67zm17.47 2.46c-0.37,-0.37 -0.55,-0.84 -0.55,-1.4 0,-0.57 0.18,-1.04 0.55,-1.41 0.37,-0.37 0.84,-0.55 1.4,-0.55 0.57,0 1.04,0.18 1.41,0.55 0.37,0.37 0.55,0.84 0.55,1.41 0,0.56 -0.18,1.03 -0.55,1.4 -0.37,0.37 -0.84,0.55 -1.41,0.55 -0.56,0 -1.03,-0.18 -1.4,-0.55zm9.11 -8.26c0.38,-1.08 0.79,-2.04 1.22,-2.89 0.43,-0.84 0.95,-1.56 1.57,-2.16 0.62,-0.6 1.26,-0.9 1.91,-0.9 0.57,0 1.05,0.26 1.44,0.77 0.39,0.51 0.58,1.28 0.58,2.3 0,0.46 -0.06,0.99 -0.19,1.61 -0.13,0.63 -0.28,1.14 -0.46,1.56l-2.01 4.7c-0.33,0.72 -0.49,1.33 -0.49,1.82 0,0.66 0.23,0.99 0.69,0.99 1.29,0 2.64,-1.18 4.04,-3.54 0.85,-1.39 1.6,-2.8 2.25,-4.21 0.66,-1.41 1.14,-2.58 1.43,-3.52l0.58 -2.1 2.12 0 -2.66 9.78c-0.34,1.24 -0.5,2.11 -0.5,2.63 0,0.56 0.2,0.83 0.59,0.83 0.43,0 0.86,-0.26 1.3,-0.78 0.44,-0.52 0.83,-1.13 1.16,-1.84 0.34,-0.71 0.66,-1.5 0.95,-2.37l0.63 0.19c-1.39,3.96 -2.93,5.94 -4.63,5.94 -1.22,0 -1.83,-1.09 -1.83,-3.26 0,-0.39 0.1,-1.02 0.29,-1.9 0.2,-0.87 0.36,-1.5 0.51,-1.88l-0.08 -0.09c-0.08,0.12 -0.26,0.45 -0.53,0.99 -0.28,0.53 -0.51,0.96 -0.7,1.3 -0.19,0.34 -0.45,0.77 -0.79,1.31 -0.33,0.54 -0.66,0.99 -0.97,1.34 -0.32,0.37 -0.67,0.73 -1.05,1.1 -0.37,0.36 -0.76,0.64 -1.16,0.82 -0.4,0.18 -0.81,0.27 -1.23,0.27 -0.63,0 -1.13,-0.26 -1.5,-0.78 -0.37,-0.52 -0.55,-1.29 -0.55,-2.29 0,-0.46 0.06,-1.01 0.2,-1.65 0.14,-0.64 0.28,-1.15 0.43,-1.52l2.02 -4.7c0.33,-0.72 0.5,-1.33 0.5,-1.82 0,-0.29 -0.06,-0.53 -0.17,-0.71 -0.12,-0.19 -0.3,-0.28 -0.56,-0.28 -0.37,0 -0.76,0.18 -1.16,0.55 -0.4,0.36 -0.77,0.84 -1.11,1.43 -0.33,0.6 -0.61,1.14 -0.83,1.63 -0.22,0.48 -0.43,0.99 -0.62,1.51l-0.63 -0.18zm19.32 7.49c0,-0.76 0.17,-1.5 0.5,-2.21 0.34,-0.72 0.78,-1.35 1.33,-1.89 0.54,-0.55 1.12,-1.02 1.72,-1.42 0.6,-0.4 1.21,-0.74 1.84,-1.01 1.85,-0.76 3.16,-1.39 3.93,-1.89 0.77,-0.5 1.29,-1.09 1.56,-1.77 -0.04,-0.07 -0.06,-0.12 -0.06,-0.14 -0.57,0.45 -1.11,0.68 -1.61,0.68 -0.32,0 -0.62,-0.05 -0.9,-0.14 -0.28,-0.09 -0.5,-0.19 -0.65,-0.3 -0.14,-0.12 -0.33,-0.26 -0.57,-0.44 -0.56,-0.42 -1.08,-0.64 -1.54,-0.64 -0.5,0 -0.95,0.1 -1.34,0.3 -0.39,0.2 -0.72,0.48 -0.99,0.85 -0.28,0.37 -0.49,0.69 -0.63,0.96 -0.15,0.28 -0.3,0.6 -0.45,0.98l-0.5 -0.22c0.13,-0.48 0.3,-0.99 0.54,-1.51 0.23,-0.53 0.52,-1.08 0.88,-1.64 0.36,-0.57 0.8,-1.04 1.32,-1.42 0.53,-0.38 1.06,-0.57 1.61,-0.57 0.95,0 1.84,0.6 2.68,1.8 0.28,0.35 0.5,0.6 0.68,0.75 0.18,0.15 0.36,0.23 0.55,0.23 0.61,0 0.92,-0.17 0.92,-0.51 0,-0.21 -0.1,-0.36 -0.29,-0.44 -0.33,-0.17 -0.5,-0.44 -0.5,-0.82 0,-0.29 0.07,-0.54 0.22,-0.73 0.15,-0.18 0.37,-0.28 0.66,-0.28 0.4,0 0.7,0.14 0.9,0.43 0.2,0.28 0.3,0.64 0.3,1.08 0,1.05 -0.53,2.17 -1.58,3.35 -1.05,1.18 -2.32,2.08 -3.81,2.71 -2.13,0.88 -3.5,1.53 -4.12,1.96 -0.62,0.42 -0.99,0.91 -1.12,1.48 0.88,0.23 1.68,0.53 2.4,0.91 1.07,0.55 2.07,0.82 2.99,0.82 0.51,0 0.98,-0.12 1.41,-0.36 0.43,-0.24 0.79,-0.57 1.07,-0.98 0.28,-0.41 0.52,-0.8 0.71,-1.18 0.19,-0.38 0.36,-0.79 0.5,-1.23l0.6 0.25c-0.16,0.53 -0.32,1 -0.47,1.42 -0.15,0.42 -0.36,0.91 -0.65,1.45 -0.28,0.55 -0.57,1 -0.88,1.36 -0.3,0.35 -0.69,0.66 -1.15,0.91 -0.46,0.25 -0.96,0.38 -1.48,0.38 -0.55,0 -1.06,-0.11 -1.53,-0.32 -0.48,-0.21 -0.84,-0.42 -1.09,-0.64 -0.25,-0.22 -0.54,-0.51 -0.85,-0.87 -0.57,-0.63 -1.01,-0.94 -1.33,-0.94 -0.44,0 -0.66,0.16 -0.66,0.5 0,0.23 0.16,0.4 0.47,0.5 0.36,0.15 0.54,0.41 0.54,0.79 0,0.28 -0.07,0.51 -0.22,0.7 -0.15,0.19 -0.39,0.28 -0.73,0.28 -0.33,0 -0.61,-0.13 -0.82,-0.38 -0.21,-0.25 -0.31,-0.57 -0.31,-0.94z"/>
   <path id="logo" class="fil0" d="M10.79 25.96c-1.83,-0.23 -3.22,-1.08 -3.65,-2.25 -0.21,-0.55 -0.29,-1.19 -0.15,-1.19 0.03,0 0.28,0.19 0.54,0.43 0.59,0.52 1.04,0.75 1.78,0.93 1.58,0.37 3.38,-0.53 4.15,-2.07 0.29,-0.55 0.46,-1.03 0.46,-1.72 0,-0.71 -0.17,-1.22 -0.44,-1.74 -0.59,-1.11 -2.01,-2.23 -3.36,-2.66 -0.6,-0.19 -0.98,-0.23 -2,-0.22 -2.07,0.01 -3.63,0.57 -4.81,1.76 -1.11,1.11 -1.61,2.45 -1.61,4.3 0,1.04 -0.1,1.25 -0.3,0.59 -0.4,-1.37 -0.53,-4.68 -0.24,-6.29 0.41,-2.33 1.03,-4.24 2.04,-6.33 1.89,-3.89 4.72,-6.95 7.85,-8.47 1.53,-0.75 2.63,-1.03 3.98,-1.03 1.85,0 3.21,0.54 4.53,1.78 3.05,2.86 3.71,8.53 1.68,14.42 -0.82,2.39 -2.55,5.43 -3.95,6.96 -0.61,0.66 -2.02,1.71 -2.89,2.16 -1.03,0.52 -2.5,0.78 -3.61,0.64l0 0z" />
  </g>
 </g>
</svg>
